PathFileType	4	(X/Y/Z)	c:/Users/goper/Files/vsCode/490R/osim_files/A01/A01_PWS_05.trc
DataRate	CameraRate	NumFrames	NumMarkers	Units                	OrigDataRate	OrigDataStartFrame	OrigNumFrames
120.00	120.00	10	36	mm	120.0	895	1193
                Frame#	Time	Mobility_markerset:LPSIS			Mobility_markerset:LASIS			Mobility_markerset:LTH1			Mobility_markerset:LTH2			Mobility_markerset:LTH3			Mobility_markerset:LTH4			Mobility_markerset:LLFE			Mobility_markerset:LMFE			Mobility_markerset:LSH1			Mobility_markerset:LSH2			Mobility_markerset:LSH3			Mobility_markerset:LSH4			Mobility_markerset:LLMAL			Mobility_markerset:LMMAL			Mobility_markerset:LCAL			Mobility_markerset:LMTP5			Mobility_markerset:LTOE			Mobility_markerset:LMTP1			Mobility_markerset:RPSIS			Mobility_markerset:RASIS			Mobility_markerset:RTH1			Mobility_markerset:RTH2			Mobility_markerset:RTH3			Mobility_markerset:RTH4			Mobility_markerset:RLFE			Mobility_markerset:RMFE			Mobility_markerset:RSH1			Mobility_markerset:RSH2			Mobility_markerset:RSH3			Mobility_markerset:RSH4			Mobility_markerset:RLMAL			Mobility_markerset:RMMAL			Mobility_markerset:RCAL			Mobility_markerset:RMTP1			Mobility_markerset:RTOE			Mobility_markerset:RMTP5		
		X1	Y1	Z1	X2	Y2	Z2	X3	Y3	Z3	X4	Y4	Z4	X5	Y5	Z5	X6	Y6	Z6	X7	Y7	Z7	X8	Y8	Z8	X9	Y9	Z9	X10	Y10	Z10	X11	Y11	Z11	X12	Y12	Z12	X13	Y13	Z13	X14	Y14	Z14	X15	Y15	Z15	X16	Y16	Z16	X17	Y17	Z17	X18	Y18	Z18	X19	Y19	Z19	X20	Y20	Z20	X21	Y21	Z21	X22	Y22	Z22	X23	Y23	Z23	X24	Y24	Z24	X25	Y25	Z25	X26	Y26	Z26	X27	Y27	Z27	X28	Y28	Z28	X29	Y29	Z29	X30	Y30	Z30	X31	Y31	Z31	X32	Y32	Z32	X33	Y33	Z33	X34	Y34	Z34	X35	Y35	Z35	X36	Y36	Z36

895	7.45000	0.00000	0.00000	0.00000	-3494.04712	1035.88538	490.22177	-3380.34009	698.60803	528.04767	-3389.18799	652.54163	515.82953	-3441.49023	703.25531	528.06860	-3441.06909	658.59875	513.85284	-3420.84619	539.30701	475.48950	-3444.77148	555.22906	341.84528	-3353.15039	386.52924	455.62051	0.00000	0.00000	0.00000	-3412.94800	369.86136	452.44315	-3395.13599	327.50601	452.01898	-3309.62939	97.78347	421.68365	-3298.67261	99.95851	339.02338	-3226.03027	75.32919	381.40726	-3447.41138	41.12054	436.62378	-3473.75146	62.74712	369.15823	0.00000	0.00000	0.00000	-3266.16479	1044.08203	281.92584	-3504.14624	1008.93628	231.73602	-3500.07104	681.36755	144.13997	-3526.31445	646.10999	150.27094	-3554.54126	712.32788	149.96097	-3571.46167	672.86548	153.22261	-3613.88232	532.68317	192.07646	-3620.17627	544.16815	313.54980	0.00000	0.00000	0.00000	-3477.01611	311.01721	167.27144	-3543.23096	340.54590	166.73602	-3530.31079	298.03448	163.45966	-3461.55249	127.59091	182.95872	-3490.83740	137.72952	266.91498	-3408.34863	107.46792	235.37392	-3609.43188	55.32530	260.86313	-3642.88159	70.23492	214.42297	-3581.90234	46.62100	151.54199
896	7.45833	0.00000	0.00000	0.00000	-3500.26270	1035.08826	491.23007	-3384.24414	698.55475	527.60529	-3393.13892	652.26233	515.63843	-3445.52881	702.58746	527.98840	-3445.08569	658.06647	513.84741	-3424.35986	538.85510	475.44647	0.00000	0.00000	0.00000	-3354.84058	386.63733	455.48203	0.00000	0.00000	0.00000	-3415.21118	369.51010	452.51541	-3397.11841	327.27762	452.02335	-3309.92163	98.05223	421.67126	-3299.01685	100.30679	338.83029	-3225.64722	75.95851	381.27878	-3447.47974	41.06796	436.66782	-3473.75146	62.61920	369.14035	-3456.82471	53.41488	335.43018	-3273.95728	1044.26123	280.33084	-3512.72266	1008.76068	232.42178	-3509.38354	681.06421	145.51157	-3534.88159	646.09821	151.57556	-3563.45215	712.12256	151.58932	-3580.26270	672.62964	155.05231	-3622.31470	532.67706	193.49722	-3624.95996	542.55890	315.00452	0.00000	0.00000	0.00000	-3496.98608	305.43079	166.46182	-3563.06250	338.71860	166.38046	-3550.57764	295.03925	163.31682	-3490.84180	121.22465	181.96075	-3518.98120	132.65085	266.03091	-3437.52026	98.94802	233.65088	-3641.45874	55.78696	260.90979	-3674.53003	72.00068	214.64436	-3615.11230	45.72303	151.33740
897	7.46667	0.00000	0.00000	0.00000	-3506.26587	1034.13538	492.11563	-3388.50317	698.35992	527.35809	-3396.85254	652.06934	515.34576	-3449.74048	702.03210	527.94580	-3448.84326	657.34924	513.81342	-3427.77686	538.31476	475.37589	-3453.40747	554.80255	342.58792	-3357.38428	386.63483	455.45358	-3349.09961	341.14639	457.25912	-3417.34644	368.94751	452.33722	-3399.01904	326.95074	451.98566	-3310.20898	98.33254	421.67773	-3299.33203	100.60966	338.65195	-3225.82227	76.54324	381.18942	-3447.56689	41.02123	436.73380	-3473.80811	62.50021	369.14227	-3456.91211	53.36950	335.34732	-3282.01831	1044.27893	278.77338	-3521.32642	1008.37982	233.24840	-3517.76929	680.72430	146.38835	-3543.91479	645.59265	152.71429	-3572.13574	711.67340	153.15895	-3588.66699	672.12469	157.01952	-3630.69263	532.42987	194.69420	-3630.45215	541.17902	316.81122	-3521.55762	346.17740	167.81760	-3517.01807	300.40063	165.63512	-3580.78662	336.69586	166.62270	-3570.75049	292.49973	163.28967	-3519.94263	115.88813	181.12103	-3546.84155	128.47845	265.34988	-3467.24023	91.35054	232.31213	-3672.92358	57.41116	261.39868	-3705.63135	74.93076	215.31064	-3647.96484	46.02493	151.52615
898	7.47500	0.00000	0.00000	0.00000	-3512.30615	1033.15588	492.95865	-3392.69629	698.06415	526.98346	-3400.75635	651.83105	515.12616	-3453.73047	701.34985	527.90106	-3452.80225	656.78741	513.80859	-3431.37231	537.82367	475.35342	0.00000	0.00000	0.00000	-3359.60498	386.69247	455.28946	0.00000	0.00000	0.00000	-3419.59253	368.56384	452.33960	-3400.94727	326.60065	451.97559	-3310.49316	98.63415	421.68900	-3299.66846	100.88161	338.46417	-3226.70044	76.84148	381.28549	-3447.63159	40.93936	436.78339	-3473.99829	62.32341	369.20648	-3457.02002	53.35659	335.31131	-3290.74683	1044.09692	277.31146	-3530.18628	1007.84222	234.10278	-3525.50562	680.31134	146.20850	-3551.66772	644.97046	153.55452	-3580.49561	710.93750	154.28256	-3596.66699	671.23260	158.52237	-3638.84058	532.00604	195.59865	-3635.41675	539.37134	318.49725	-3538.32593	341.70743	167.48947	-3536.99951	295.69809	164.90703	-3598.61475	335.09842	166.75957	-3590.83496	290.45129	163.29131	-3548.67310	111.52932	180.54378	-3574.53784	125.77814	264.95328	-3496.71167	84.61568	231.27553	-3703.70728	60.43917	262.25854	-3735.92627	79.05302	216.37419	-3680.27466	47.59080	152.13133
899	7.48333	0.00000	0.00000	0.00000	-3518.46021	1032.16052	493.77423	-3396.78101	697.68982	525.53668	-3404.53906	651.48895	514.80090	-3457.85278	700.78564	527.80963	-3456.59473	656.12421	513.85504	-3434.85767	537.25684	475.35538	0.00000	0.00000	0.00000	-3362.13232	386.70352	455.27554	0.00000	0.00000	0.00000	-3422.01880	368.24335	452.41571	-3403.87085	326.90012	452.18784	-3310.81543	98.92883	421.71744	-3299.97681	101.16064	338.30240	-3226.98413	77.37618	381.22986	-3446.95679	40.40304	436.60797	-3474.03223	62.21067	369.20248	-3457.11084	53.31255	335.26706	-3298.97900	1044.06274	275.54388	-3538.92896	1006.98309	235.00468	-3534.10205	679.69067	147.41138	-3559.29639	644.18982	154.14076	-3588.53467	709.91193	155.02910	-3604.38110	670.02307	159.69873	-3646.85107	531.36047	196.24243	-3640.17114	537.30786	319.97772	-3555.34644	337.58670	166.85498	-3556.32886	290.76865	164.39606	-3616.20801	333.97089	166.95938	-3610.57837	288.93201	163.33875	-3577.07861	107.87950	180.33717	-3601.02222	123.43321	264.68997	-3525.78003	78.86435	230.40645	-3733.73560	64.78064	263.51791	-3765.25439	84.42475	217.87509	-3711.83350	50.37090	153.06442
900	7.49167	0.00000	0.00000	0.00000	-3524.69971	1031.19849	494.51999	-3400.75879	697.48615	525.03503	-3408.88159	651.08533	514.61951	-3461.80615	700.11493	527.76471	-3460.46436	655.48529	513.83472	-3438.38306	536.71021	475.32977	0.00000	0.00000	0.00000	-3364.47632	386.71088	455.13925	0.00000	0.00000	0.00000	-3424.09009	367.66312	452.34006	-3405.72754	326.51074	452.18326	-3311.16748	99.23265	421.74600	-3300.42896	101.53396	338.07114	-3226.57129	78.01855	381.01025	-3446.98584	40.27041	436.64957	-3474.08228	62.07233	369.19870	-3457.16772	53.20884	335.19846	-3307.29370	1043.86340	273.78790	-3547.85620	1005.98285	235.99069	-3543.07080	678.93964	147.03787	-3566.49292	643.03571	154.48273	-3596.32275	708.49872	156.85286	-3611.72412	668.56097	160.48795	-3654.93994	530.70935	196.63048	-3644.87720	535.13733	321.19659	-3572.56494	334.12753	166.11513	-3575.59302	287.40128	163.78032	-3633.37524	333.14594	167.14825	-3629.88281	288.06125	163.50156	-3604.62231	105.56305	179.93784	-3626.57837	121.60381	264.99814	-3554.35986	73.93534	229.81096	-3762.66162	70.07070	265.15756	-3793.63452	90.85155	219.73250	-3742.73315	54.35869	154.35281
901	7.50000	0.00000	0.00000	0.00000	-3530.74219	1030.12634	495.09903	-3404.85596	697.29486	524.68524	-3412.05688	651.03448	514.16895	-3465.84131	699.51312	527.75409	-3464.20557	654.82874	513.83746	-3441.94531	536.13855	475.30066	0.00000	0.00000	0.00000	-3366.88403	386.71591	455.05435	0.00000	0.00000	0.00000	-3426.38647	367.20068	452.31442	-3407.67749	326.18384	452.17960	-3311.58081	99.58936	421.77844	-3300.79541	101.91831	337.84998	-3226.88696	78.85280	380.84351	-3446.98315	40.17285	436.68747	-3474.06470	61.92515	369.17682	-3456.89160	52.96217	335.02701	-3316.11377	1043.52002	272.11520	-3556.87476	1004.83624	236.92499	-3555.51831	679.32819	144.45683	-3573.54932	641.77087	154.59335	-3604.00391	707.17834	156.39662	-3618.94165	667.15131	161.06720	-3663.07446	529.97101	196.78984	-3649.33398	532.80383	322.13715	-3589.65015	331.21591	165.46461	-3594.62109	284.57544	163.34540	-3649.91406	332.36353	166.56517	-3648.74463	287.55551	163.76505	-3631.76001	103.77575	180.31856	-3651.96802	121.34510	265.37772	-3582.29321	69.99948	229.40982	-3790.29150	76.07941	267.18570	-3820.62012	97.90982	222.02336	-3772.56689	59.26524	155.96536
902	7.50833	0.00000	0.00000	0.00000	-3536.86255	1028.96997	495.69803	-3408.87915	697.09424	524.29651	-3415.67578	650.74823	513.81689	-3469.71558	698.80640	527.65918	-3467.86304	654.13635	513.86670	-3445.39722	535.51434	475.29889	0.00000	0.00000	0.00000	-3370.08179	386.48911	455.14532	-3359.62207	341.65790	456.95163	-3428.84619	366.80832	452.46964	-3408.81958	325.33856	451.94611	-3311.90234	99.87531	421.78030	-3301.17651	102.29013	337.64761	-3227.83032	79.32069	380.89017	-3446.95264	40.03598	436.71368	-3474.03198	61.78731	369.16721	-3456.95898	52.91195	334.97406	-3324.83521	1043.37378	270.31778	-3565.85791	1003.43207	237.91745	-3561.78101	677.86865	144.80333	-3579.72119	640.51733	154.08232	-3611.44971	705.43555	156.62045	-3625.87720	665.25293	161.15625	-3671.51733	529.41998	196.86409	-3653.85815	530.66840	322.93860	-3606.46265	328.71881	164.96132	-3613.31958	282.29678	162.92906	-3666.91748	332.72067	167.71944	-3667.08667	287.47260	164.24289	-3657.70947	102.98906	180.38702	-3676.82910	121.95145	266.32965	-3609.32739	66.83472	229.16434	-3816.71899	82.59847	269.62134	-3846.43823	105.46555	224.76987	-3801.18555	64.82201	158.01651
903	7.51667	0.00000	0.00000	0.00000	-3543.21265	1027.92480	496.27933	-3413.75488	696.62189	523.97858	-3419.48584	650.43250	513.54126	-3473.72119	698.16425	527.71954	-3471.43359	653.45215	513.56152	-3449.14038	534.90100	475.38510	0.00000	0.00000	0.00000	-3372.46509	386.47263	454.98978	0.00000	0.00000	0.00000	-3431.04297	366.23190	452.45020	-3410.78564	324.96939	451.95404	-3312.54663	100.26299	421.81311	-3301.64209	102.66772	337.53503	-3227.50122	80.05821	380.72772	-3447.04785	39.96246	436.81360	-3474.02563	61.64038	369.18573	-3457.04077	52.82895	334.95770	-3333.77319	1043.01123	268.44449	-3574.95776	1001.89526	238.91365	-3568.11182	676.02997	144.59621	-3586.49023	638.97919	153.55249	-3618.85205	703.60095	156.60547	-3632.70605	663.15942	160.82799	-3680.01196	528.79126	196.83037	-3658.46216	528.72894	323.74243	-3622.85425	326.47565	164.50893	-3631.46362	280.43942	162.57312	-3683.04858	332.79611	168.10387	-3684.89868	287.48846	164.88684	-3682.98682	102.70041	181.05827	-3702.59863	124.77711	268.46362	-3635.54346	64.37183	229.23991	-3841.77441	89.38442	272.50455	-3870.94336	113.22205	227.95818	-3826.47192	68.47623	161.66193
904	7.52500	0.00000	0.00000	0.00000	-3549.53418	1026.81104	496.69440	-3417.01147	696.63330	523.39856	-3423.26929	650.18915	513.17633	-3477.62817	697.46045	527.62445	-3475.47266	652.81860	514.01019	-3452.90137	534.38184	475.50214	0.00000	0.00000	0.00000	-3374.42603	386.68716	454.86719	0.00000	0.00000	0.00000	-3433.39233	365.79193	452.44693	-3412.86255	324.69357	452.04242	-3312.79663	100.72439	421.78888	-3302.00391	103.09270	337.26190	-3228.02173	81.23919	380.34106	-3447.09692	39.90555	436.88196	-3473.82861	61.51914	369.10062	-3457.11475	52.77559	334.92105	-3342.71362	1042.54529	266.49808	-3584.17676	1000.25610	239.87622	-3575.28784	674.73602	144.16608	-3593.14722	637.46820	152.65488	-3626.32788	701.63397	156.32608	-3639.61475	660.99335	160.10643	-3688.08325	528.13507	197.77336	-3663.09180	527.01263	324.31403	-3638.75000	324.40900	164.06818	-3649.27832	278.59354	162.40056	-3698.77637	332.96704	168.52519	-3702.39868	287.84741	165.32965	-3707.50073	103.14821	181.87515	-3721.96460	123.29318	267.83765	0.00000	0.00000	0.00000	-3864.83887	94.84430	275.33734	-3894.04858	121.01316	231.66547	-3852.95020	74.97736	164.29820
